<svg version="1.1" id="Layer_1" xmlns="http://www.w3.org/2000/svg" xmlns:xlink="http://www.w3.org/1999/xlink" x="0px" y="0px"
	 width="100%" viewBox="0 0 141 142" enable-background="new 0 0 141 142" xml:space="preserve">
<path fill="#492E89" opacity="1.000000" stroke="none" 
	d="
M39.900131,24.720774 
	C41.566586,24.104708 43.221012,22.997742 44.901558,22.956558 
	C52.664520,22.766308 60.434750,22.872578 68.672630,22.872578 
	C68.672630,28.556561 68.672630,33.823299 68.198380,39.530499 
	C66.113625,39.646675 64.503120,39.322392 62.892616,38.998108 
	C62.207527,28.486685 62.207127,28.445045 51.409004,28.549011 
	C48.610817,28.575954 45.815998,28.952742 42.402245,28.853649 
	C41.156612,27.265902 40.528370,25.993338 39.900131,24.720774 
z"/>
<path fill="#3F317E" opacity="1.000000" stroke="none" 
	d="
M39.577690,24.884399 
	C40.528370,25.993338 41.156612,27.265902 41.936874,28.866676 
	C41.520432,30.962072 40.502392,32.718842 40.461170,34.498238 
	C40.280777,42.285576 40.383507,50.079475 40.383507,58.149994 
	C38.232861,58.149994 36.501240,58.149994 34.478962,58.149994 
	C34.478962,49.445713 34.109753,40.980450 34.698261,32.582302 
	C34.880814,29.977222 37.663155,27.554325 39.577690,24.884399 
z"/>
<path fill="#59CAA3" opacity="1.000000" stroke="none" 
	d="
M104.848770,26.641964 
	C110.290398,24.872934 115.732025,23.103903 122.599983,20.871183 
	C120.203171,29.663418 118.165741,37.137314 115.833847,45.691383 
	C113.937042,42.812710 112.687691,40.916634 111.203003,38.407326 
	C108.928040,34.076721 106.888405,30.359343 104.848770,26.641964 
z"/>
<path fill="#653A9E" opacity="1.000000" stroke="none" 
	d="
M114.737373,96.914955 
	C114.849220,95.208656 114.961060,93.502350 115.350388,91.114792 
	C115.458832,88.375473 115.289795,86.317429 115.120758,84.259377 
	C115.121574,79.157356 115.122375,74.055328 115.593155,68.486679 
	C117.665154,68.019020 119.267174,68.017998 120.869186,68.016975 
	C120.817978,77.811440 120.766769,87.605896 120.072083,97.683624 
	C117.864853,97.616241 116.301117,97.265602 114.737373,96.914955 
z"/>
<path fill="#332D6F" opacity="1.000000" stroke="none" 
	d="
M45.029167,81.082397 
	C46.060059,78.793617 47.697086,76.581963 48.000099,74.200569 
	C48.707699,68.639458 48.774429,62.996807 49.841591,57.171715 
	C52.329449,57.432354 54.076431,57.908455 55.488747,58.654633 
	C54.801552,62.220806 54.449032,65.516907 54.064823,69.236702 
	C54.055004,70.509148 54.076878,71.357895 54.098751,72.206642 
	C54.438663,77.966805 53.904537,83.333900 47.423164,85.863808 
	C46.369698,84.046669 45.699436,82.564529 45.029167,81.082397 
z"/>
<path fill="#2E2D5C" opacity="1.000000" stroke="none" 
	d="
M44.588863,81.083473 
	C45.699436,82.564529 46.369698,84.046669 47.061180,85.893631 
	C43.018902,86.641769 38.955410,87.025070 34.458176,87.449280 
	C34.458176,80.107506 34.458176,73.388474 34.458176,66.158348 
	C36.052036,66.072960 37.775379,65.980637 40.185696,65.851509 
	C40.185696,69.908173 40.350414,73.677040 40.134785,77.424034 
	C39.954742,80.552689 41.069038,81.770691 44.588863,81.083473 
z"/>
<path fill="#312D7A" opacity="1.000000" stroke="none" 
	d="
M83.004196,106.122482 
	C77.468262,106.122482 71.932320,106.122482 65.871124,106.122482 
	C66.533363,99.999023 64.028168,93.784592 69.239288,88.257034 
	C70.932693,89.345497 71.962029,90.626701 72.697189,92.204735 
	C72.190346,95.071823 71.977661,97.642082 71.733757,100.589607 
	C75.849487,100.781288 79.420273,100.947594 82.991920,101.530914 
	C82.996582,103.339447 83.000389,104.730965 83.004196,106.122482 
z"/>
<path fill="#242452" opacity="1.000000" stroke="none" 
	d="
M50.006565,106.151741 
	C44.917561,106.151741 39.828556,106.151741 34.426003,106.151741 
	C34.426003,101.995552 34.426003,97.938637 34.426003,93.128754 
	C36.655403,93.128754 38.886646,93.128754 41.559807,93.579498 
	C43.374706,96.226982 44.708500,98.449501 46.132500,100.612648 
	C47.370911,102.493866 48.711262,104.307976 50.006565,106.151741 
z"/>
<path fill="#372E7C" opacity="1.000000" stroke="none" 
	d="
M55.823418,58.384556 
	C54.076431,57.908455 52.329449,57.432354 50.129707,56.914406 
	C53.183037,54.576447 56.689117,52.280338 60.733185,50.156815 
	C62.846596,50.882553 64.422028,51.435707 66.368011,51.994930 
	C67.232430,52.018406 67.726303,52.035816 68.220169,52.053223 
	C68.071815,56.185669 67.923462,60.318115 67.102432,64.747955 
	C64.909576,64.684006 63.389393,64.322662 61.946888,63.514481 
	C62.150280,61.136509 62.275993,59.205376 62.465591,56.292850 
	C59.733097,57.153347 57.778259,57.768951 55.823418,58.384556 
z"/>
<path fill="#473088" opacity="1.000000" stroke="none" 
	d="
M85.016434,84.936699 
	C86.018112,83.872665 87.019791,82.808632 88.464203,81.383347 
	C90.535362,81.353004 92.163780,81.683899 93.792191,82.014793 
	C93.897774,82.644226 94.003365,83.273659 94.118317,84.628555 
	C94.419975,86.934952 94.712273,88.515900 95.004570,90.096840 
	C94.666901,93.111046 94.329224,96.125259 93.496460,99.573608 
	C91.383415,100.008247 89.765465,100.008736 88.096596,99.563980 
	C87.118126,96.132256 89.990707,92.292648 85.957275,89.625755 
	C85.616951,87.816963 85.316696,86.376831 85.016434,84.936699 
z"/>
<path fill="#45447A" opacity="1.000000" stroke="none" 
	d="
M47.996841,92.998222 
	C50.557030,90.256950 53.117222,87.515671 56.290283,84.855255 
	C58.291481,85.969742 59.679798,87.003357 61.068119,88.036980 
	C57.993111,91.003922 57.403992,94.633209 57.654999,98.769203 
	C57.809582,101.316360 56.940487,103.925644 56.264843,105.976593 
	C54.328224,100.656059 53.801929,95.130470 47.996841,92.998222 
z"/>
<path fill="#613F9C" opacity="1.000000" stroke="none" 
	d="
M114.440628,97.111656 
	C116.301117,97.265602 117.864853,97.616241 119.827118,98.026321 
	C118.187164,103.231850 114.655403,106.417229 108.901611,106.571838 
	C106.116798,106.646667 103.328316,106.584755 100.259964,106.584755 
	C100.259964,104.560425 100.259964,102.997704 100.259964,101.362602 
	C104.777512,99.407967 110.936012,103.279343 114.440628,97.111656 
z"/>
<path fill="#28265E" opacity="1.000000" stroke="none" 
	d="
M47.565895,93.019501 
	C53.801929,95.130470 54.328224,100.656059 55.968002,105.841866 
	C54.232162,106.297424 52.527008,106.357269 50.414207,106.284424 
	C48.711262,104.307976 47.370911,102.493866 46.132500,100.612648 
	C44.708500,98.449501 43.374706,96.226982 41.993584,93.681152 
	C43.701942,93.234962 45.418442,93.137878 47.565895,93.019501 
z"/>
<path fill="#533590" opacity="1.000000" stroke="none" 
	d="
M93.885719,81.553650 
	C92.163780,81.683899 90.535362,81.353004 88.546814,81.015694 
	C88.509254,76.458679 88.536209,71.856621 89.314507,67.385353 
	C89.587509,65.816994 91.706215,64.569916 93.979248,62.086868 
	C93.979248,69.390228 93.979248,75.241364 93.885719,81.553650 
z"/>
<path fill="#593294" opacity="1.000000" stroke="none" 
	d="
M120.945236,52.007404 
	C120.945236,53.614738 120.945236,55.222076 120.945236,57.103256 
	C113.899216,57.103256 107.172386,57.103256 100.445557,57.103256 
	C100.244507,56.628990 100.043457,56.154728 99.842407,55.680462 
	C102.081711,54.717541 104.246460,53.452240 106.581245,52.876625 
	C108.922592,52.299393 111.433556,52.410145 114.661346,52.067009 
	C117.283424,51.945564 119.114326,51.976486 120.945236,52.007404 
z"/>
<path fill="#403285" opacity="1.000000" stroke="none" 
	d="
M84.652252,84.814911 
	C85.316696,86.376831 85.616951,87.816963 85.516586,89.715355 
	C81.074432,90.751709 77.032890,91.329803 72.991356,91.907906 
	C71.962029,90.626701 70.932693,89.345497 69.560089,88.067825 
	C73.370842,83.065163 79.092896,85.054420 84.652252,84.814911 
z"/>
<path fill="#593295" opacity="1.000000" stroke="none" 
	d="
M95.603531,23.986917 
	C90.569275,29.882530 83.814194,28.105951 77.068626,28.391327 
	C76.941460,26.471037 76.847260,25.048532 76.679543,22.516001 
	C83.108719,22.919470 89.207642,23.302214 95.603531,23.986917 
z"/>
<path fill="#51C4A4" opacity="1.000000" stroke="none" 
	d="
M104.481537,26.686996 
	C106.888405,30.359343 108.928040,34.076721 110.981529,38.124268 
	C109.897362,39.287697 108.799339,40.120956 107.320175,40.664955 
	C105.595894,39.239586 104.252754,38.103474 102.909622,36.967361 
	C103.672386,35.928898 104.435150,34.890438 105.386009,33.595901 
	C103.094757,31.927610 101.005920,30.406698 98.247177,28.398018 
	C100.584488,27.734329 102.349388,27.233179 104.481537,26.686996 
z"/>
<path fill="#452F85" opacity="1.000000" stroke="none" 
	d="
M68.388168,51.684647 
	C67.726303,52.035816 67.232430,52.018406 66.331818,51.646343 
	C64.889496,49.708431 63.853916,48.125175 62.818336,46.541920 
	C62.767487,44.301308 62.716633,42.060699 62.779198,39.409096 
	C64.503120,39.322392 66.113625,39.646675 68.072708,39.981247 
	C68.466255,43.766380 68.511208,47.541222 68.388168,51.684647 
z"/>
<path fill="#2E3B78" opacity="1.000000" stroke="none" 
	d="
M61.406391,87.983330 
	C59.679798,87.003357 58.291481,85.969742 56.570908,84.699768 
	C58.838261,81.812408 61.437870,79.161407 64.507904,76.747597 
	C66.297539,78.106491 67.616730,79.228195 68.935928,80.349899 
	C66.538841,82.876495 64.141754,85.403084 61.406391,87.983330 
z"/>
<path fill="#379C9D" opacity="1.000000" stroke="none" 
	d="
M82.547211,57.818062 
	C84.759247,55.507233 86.971283,53.196404 89.669388,51.039028 
	C91.470261,52.192135 92.785065,53.191788 94.099861,54.191444 
	C91.946136,56.726318 89.792412,59.261192 87.284462,61.566212 
	C85.469231,60.163593 84.008224,58.990829 82.547211,57.818062 
z"/>
<path fill="#3D3684" opacity="1.000000" stroke="none" 
	d="
M61.869209,63.961327 
	C63.389393,64.322662 64.909576,64.684006 66.828568,65.067833 
	C65.336510,71.370255 60.005981,71.470032 54.494713,72.081573 
	C54.076878,71.357895 54.055004,70.509148 54.407188,69.293472 
	C57.143906,67.271477 59.506557,65.616402 61.869209,63.961327 
z"/>
<path fill="#3A2E83" opacity="1.000000" stroke="none" 
	d="
M88.147507,100.009224 
	C89.765465,100.008736 91.383415,100.008247 93.405258,100.008835 
	C93.869339,101.404510 93.929543,102.799110 93.710861,104.737579 
	C93.196899,105.509354 93.051186,105.784584 92.994835,106.107124 
	C89.958511,106.193130 86.922188,106.279137 83.445030,106.243820 
	C83.000389,104.730965 82.996582,103.339447 83.369537,101.428650 
	C85.213364,100.609322 86.680435,100.309273 88.147507,100.009224 
z"/>
<path fill="#4E4089" opacity="1.000000" stroke="none" 
	d="
M77.266922,51.731869 
	C79.128189,51.817505 80.597740,51.903111 82.519463,52.015053 
	C79.932076,56.788605 76.716827,58.978031 71.321793,57.126976 
	C71.551117,53.529957 73.175171,51.612236 77.266922,51.731869 
z"/>
<path fill="#573295" opacity="1.000000" stroke="none" 
	d="
M100.999924,84.949623 
	C104.031700,84.888702 107.063469,84.827774 110.579689,85.203827 
	C111.707573,87.102608 112.351006,88.564407 112.994446,90.026215 
	C109.629349,90.084892 106.264252,90.143570 102.409492,89.738213 
	C101.613197,87.832657 101.306564,86.391144 100.999924,84.949623 
z"/>
<path fill="#41AFA3" opacity="1.000000" stroke="none" 
	d="
M94.424896,54.101036 
	C92.785065,53.191788 91.470261,52.192135 89.965149,50.873154 
	C91.135040,49.060314 92.495232,47.566799 94.522911,45.984398 
	C96.762390,46.918991 98.334373,47.942474 99.906364,48.965958 
	C98.187553,50.647518 96.468742,52.329075 94.424896,54.101036 
z"/>
<path fill="#328A97" opacity="1.000000" stroke="none" 
	d="
M82.290741,57.972954 
	C84.008224,58.990829 85.469231,60.163593 86.975403,61.700314 
	C85.557182,63.638805 84.093796,65.213341 82.277138,66.556091 
	C80.790840,64.950043 79.657822,63.575779 78.524803,62.201511 
	C79.694626,60.843620 80.864441,59.485733 82.290741,57.972954 
z"/>
<path fill="#45B8A4" opacity="1.000000" stroke="none" 
	d="
M100.175934,48.826851 
	C98.334373,47.942474 96.762390,46.918991 94.791031,45.840813 
	C96.064957,43.957737 97.738235,42.129364 99.846230,40.436775 
	C101.238579,42.202656 102.196213,43.832741 103.153854,45.462826 
	C102.251060,46.537800 101.348274,47.612774 100.175934,48.826851 
z"/>
<path fill="#326C8E" opacity="1.000000" stroke="none" 
	d="
M79.810722,69.354790 
	C78.430008,70.845375 77.049294,72.335960 75.263168,73.513596 
	C73.182808,72.446609 71.507851,71.692558 69.832901,70.938499 
	C71.284012,69.350700 72.735130,67.762909 74.864151,66.101822 
	C76.964951,67.137291 78.387840,68.246040 79.810722,69.354790 
z"/>
<path fill="#2D497E" opacity="1.000000" stroke="none" 
	d="
M69.217728,80.214470 
	C67.616730,79.228195 66.297539,78.106491 64.814575,76.571442 
	C65.545067,75.160240 66.439308,74.162384 67.993973,73.117035 
	C70.071861,74.162567 71.489326,75.255585 72.906784,76.348587 
	C71.771034,77.592072 70.635284,78.835556 69.217728,80.214470 
z"/>
<path fill="#533590" opacity="1.000000" stroke="none" 
	d="
M100.581039,84.848969 
	C101.306564,86.391144 101.613197,87.832657 101.959526,89.643311 
	C99.955956,90.093094 97.912682,90.173737 95.436996,90.175606 
	C94.712273,88.515900 94.419975,86.934952 94.147568,84.947319 
	C96.165695,84.609863 98.163918,84.679092 100.581039,84.848969 
z"/>
<path fill="#6A3D9C" opacity="1.000000" stroke="none" 
	d="
M121.035873,51.579002 
	C119.114326,51.976486 117.283424,51.945564 114.991760,51.863083 
	C116.386978,49.084579 118.242950,46.357639 120.098923,43.630695 
	C120.441452,43.643158 120.783981,43.655621 121.126511,43.668083 
	C121.126511,46.162254 121.126511,48.656425 121.035873,51.579002 
z"/>
<path fill="#45BEA1" opacity="1.000000" stroke="none" 
	d="
M103.441391,45.276886 
	C102.196213,43.832741 101.238579,42.202656 100.126572,40.256104 
	C100.757935,39.016964 101.543686,38.094292 102.619522,37.069489 
	C104.252754,38.103474 105.595894,39.239586 106.975044,40.728752 
	C105.917015,42.418186 104.822975,43.754566 103.441391,45.276886 
z"/>
<path fill="#613F9C" opacity="1.000000" stroke="none" 
	d="
M113.253571,90.161728 
	C112.351006,88.564407 111.707573,87.102608 111.026230,85.292633 
	C112.141182,84.798027 113.294052,84.651581 114.783836,84.382256 
	C115.289795,86.317429 115.458832,88.375473 115.380920,90.686981 
	C114.593559,90.726044 114.053131,90.511642 113.253571,90.161728 
z"/>
<path fill="#347B92" opacity="1.000000" stroke="none" 
	d="
M80.054138,69.236954 
	C78.387840,68.246040 76.964951,67.137291 75.154800,65.965118 
	C75.821716,64.757828 76.875908,63.613972 78.227455,62.335815 
	C79.657822,63.575779 80.790840,64.950043 81.974365,66.698288 
	C81.449089,67.754547 80.873322,68.436836 80.054138,69.236954 
z"/>
<path fill="#2D5B84" opacity="1.000000" stroke="none" 
	d="
M73.159744,76.226540 
	C71.489326,75.255585 70.071861,74.162567 68.270462,73.012817 
	C68.355652,72.355713 68.824791,71.755356 69.563416,71.046753 
	C71.507851,71.692558 73.182808,72.446609 74.922050,73.547211 
	C74.461792,74.630669 73.937241,75.367577 73.159744,76.226540 
z"/>
<path fill="#754DA7" opacity="1.000000" stroke="none" 
	d="
M120.948128,67.629944 
	C119.267174,68.017998 117.665154,68.019020 115.663528,68.025917 
	C115.813057,67.113541 116.545609,65.350716 116.879608,65.423248 
	C118.325615,65.737259 119.655167,66.587624 120.948128,67.629944 
z"/>
<path fill="#3D3684" opacity="1.000000" stroke="none" 
	d="
M62.594845,46.767342 
	C63.853916,48.125175 64.889496,49.708431 65.961266,51.640274 
	C64.422028,51.435707 62.846596,50.882553 61.076393,50.028099 
	C61.378197,48.815453 61.874775,47.904110 62.594845,46.767342 
z"/>
<path fill="#473088" opacity="1.000000" stroke="none" 
	d="
M93.289803,106.101089 
	C93.051186,105.784584 93.196899,105.509354 93.628494,105.149757 
	C93.744926,105.377068 93.664848,105.736061 93.289803,106.101089 
z"/>
<path fill="#F0F0F5" opacity="1.000000" stroke="none" 
	d="
M61.946888,63.514484 
	C59.506557,65.616402 57.143906,67.271477 54.438881,68.869781 
	C54.449032,65.516907 54.801552,62.220806 55.488747,58.654633 
	C57.778259,57.768951 59.733097,57.153347 62.465591,56.292850 
	C62.275993,59.205376 62.150280,61.136509 61.946888,63.514484 
z"/>
<path fill="#EFEEF5" opacity="1.000000" stroke="none" 
	d="
M88.096596,99.563980 
	C86.680435,100.309273 85.213364,100.609322 83.368683,101.011635 
	C79.420273,100.947594 75.849487,100.781288 71.733757,100.589607 
	C71.977661,97.642082 72.190346,95.071823 72.697189,92.204735 
	C77.032890,91.329803 81.074432,90.751709 85.556648,90.084015 
	C89.990707,92.292648 87.118126,96.132256 88.096596,99.563980 
z"/>
</svg>